<svg xmlns="http://www.w3.org/2000/svg" viewBox="0 0 512 512" fill="#9c0f5f">
  <path d="M40 208c-22.1 0-40 17.9-40 40s17.9 40 40 40l180.2 0c-7.6 8.5-12.2 19.7-12.2 32c0 25.3 19.5 46 44.3 47.9c-7.7 8.5-12.3 19.8-12.3 32.1c0 26.5 21.5 48 48 48l32 0 64 0c70.7 0 128-57.3 128-128l0-96c0-35.3-28.7-64-64-64L261.3 160c-4.6-13-16.9-22.2-31.3-22.2L168 137.8 168 64c0-35.3-28.7-64-64-64S40 28.7 40 64l0 144zm168 240c0-8.8 7.2-16 16-16l48 0c8.8 0 16 7.2 16 16s-7.2 16-16 16l-48 0c-8.8 0-16-7.2-16-16zm-32-80c0-8.8 7.2-16 16-16l80 0c8.8 0 16 7.2 16 16s-7.2 16-16 16l-80 0c-8.8 0-16-7.2-16-16z"/>
</svg> 